@startuml

package "Módulo Raíz" {
    class AppModule <<Module>> {
    }
}

package "Módulo de Usuarios" {
    class UsersModule <<Module>> {
    }

    enum Role <<Enumerate>>{
        ADMIN
        USER
        SUSPEND
    }

    class UsersController <<Controller>> {
        + login(body: LoginDto): Object
        + register(body: RegisterDto): Object
        + findAll(): Object[]
        + updateRole(id: string, rol: Role): Object
        + findById(id: string): Object
    }

    class UsersService <<Service>> {
        + login(loginDto: LoginDto): Object
        + register(registerDto: RegisterDto): Object
        + findById(id: number): UserEntity
        + findOne(id: number): UserEntity
        + findAll(): UserEntity[]
        + updateRole(id: number, rol: Role): UserEntity
    }

    class UserEntity <<Entity>> {
        - id{PK}: number
        - nombre: string
        - apellido: string
        - email: string
        - contrasena: string
        - telefono: string
        - rol: Role
        - qualification: number
        - publications: Publication[]
    }

    ' Composición: El módulo controla el ciclo de vida de sus componentes
    UsersModule "1" *-- "1" UsersController
    UsersModule "1" *-- "1" UsersService

    ' Asociación: El controlador usa el servicio
    UsersController "1" --> "1" UsersService : llama
    UsersService ..> UserEntity : <<Instancia>>
    UserEntity "1" --> "1" Role : tiene
}

package "Módulo de Publicaciones" {
    class PublicationsModule <<Module>> {
    }

    class PublicationsController <<Controller>> {
        + create(dto: CreatePublicationDto): Object
        + findAll(): Object[]
        + findByUser(userId: string): Object[]
        + findOne(id: string): Object
        + update(id: string, dto: UpdatePublicationDto): Object
        + remove(id: string): void
        + restore(id: string): Object
    }

    class PublicationsService <<Service>>{
        + create(dto: CreatePublicationDto): Publication
        + findAll(): Publication[]
        + findByUser(userId: number): Publication[]
        + findByInitialText(term: string): Publication[]
        + findOne(id: number): Publication
        + update(id: number, dto: UpdatePublicationDto): Publication
        + remove(id: number): void
        + reload(id: number): Publication
        + deactivate(id: number): Publication
    }

    class Publication <<Entity>> {
        - id{PK}: number
        - name: string
        - lote: string
        - cantidad: number
        - expirationDate: Date
        - description: string
        - type: string
        - isActive: boolean
        - user: UserEntity
    }

    ' Composición
    PublicationsModule "1" *-- "1" PublicationsController
    PublicationsModule "1" *-- "1" PublicationsService

    ' Asociación
    PublicationsController "1" --> "1" PublicationsService : usa
    PublicationsService ..> Publication : <<Instancia>>
}

package "Reportes"{

    class ReportsModule <<Module>> {}

    class ReportsController <<Controller>> {
        + create(dto: CreateReportDto): Object
        + findAll(): Object[]
        + updateStatus(id: string, estado: string): Object
    }

    class ReportEntity <<Entity>> {
        - id{PK}: number
        - id_user {FK}: number
        - id_publication {FK}: number
        - reason: string
        - status: string

    }

     class ReportsService <<Service>> {
        + create(dto: CreateReportDto): Object
        + findAll(): Object[]
        + updateStatus(id: number, estado: string): Object
    }

    enum ReportStatus <<Enumerate>> {
        PENDING
        ACCEPTED
        REJECTED
     }

     ReportsModule "1" *-- "1" ReportsController
     ReportsModule "1" *-- "1" ReportsService

     ReportsController "1" --> "1" ReportsService : usa
     ReportsService ..> ReportEntity : <<Instancia>>
     ReportEntity "1" --> "1" ReportStatus : estado
}

package Transacciones {
    class TransactionsModule <<Module>> {}

    class TransactionsController <<Controller>> {
        + create(dto: CreateTransactionDto): Object
        + findAll(): Object[]
        + findOne(id: number): Object
        + updateStatus(id: number, dto: UpdateTransactionDto): Object
        + remove(id: number): Object
        + rateTransaction(id: number, dto: RateTransactionDto): Object
    }

    class TransactionsService <<Service>> {
        + create(dto: CreateTransactionDto): Object
        + findAll(): Object[]
        + findOne(id: number): Object
        + updateStatus(id: number, dto: UpdateTransactionDto): Object
        + remove(id: number): Object
        + rateTransaction(id: number, dto: RateTransactionDto): Object
    }

    class TransactionEntity <<Entity>> {
        - id{PK}: number
        - fecha_transaccion: Date
        - estado: TransactionStatus
    }

    class detailTransactionEntity <<Entity>> {
        - id{PK}: number
        - id_emisor {FK}: number
        - id_receptor {FK}: number
        - id_transaction {FK}: number
        - id_publication {FK}: number
        - quantity: number
    }

    enum TransactionStatus <<Enumerate>> {
        PENDING
        ACCEPTED
        REJECTED
     }

     TransactionsModule "1" *-- "1" TransactionsController
     TransactionsModule "1" *-- "1" TransactionsService

     TransactionsController "1" --> "1" TransactionsService : usa
     TransactionsService ..> TransactionEntity : <<Instancia>>
     TransactionEntity "1" --> "1" TransactionStatus : estado
     TransactionEntity "1" --* "1" detailTransactionEntity

}

' Agregación: El módulo raíz agrupa a los módulos hijos
AppModule "1" o-- "1" UsersModule
AppModule "1" o-- "1" PublicationsModule
AppModule "1" o-- "1" ReportsModule
AppModule "1" o-- "1" TransactionsModule

' Agregación: Un usuario agrupa publicaciones
UserEntity "1" -- "0..*" Publication
UserEntity "1" o-- "0..*" detailTransactionEntity

' Para mantener simplicidad cuando una publicacion tiene una transaccion no se pueden hacer mas transacciones.
Publication "1" o-- "1" detailTransactionEntity
UserEntity "1" o-- "0..*" ReportEntity
Publication "1" o-- "0..*" ReportEntity

@enduml
